<svg width="45" height="38" viewBox="0 0 45 38" fill="none" xmlns="http://www.w3.org/2000/svg">
<path fill-rule="evenodd" clip-rule="evenodd" d="M22.3651 8.44482C22.6759 8.44482 23.0626 8.63862 23.5282 9.22002L32.6002 20.5706C34.072 22.4148 33.2197 23.8639 31.2842 23.6751H22.3651L27.715 30.5632H39.1121C42.6014 30.757 45.3881 26.6822 41.9039 22.5111L26.0113 2.71825C24.6862 1.06779 23.5282 0 22.3651 0C21.202 0 20.0369 1.06779 18.7209 2.71825L2.82832 22.5098C-0.659959 26.6809 2.12985 30.7558 5.61914 30.5607H17.0153L22.3651 23.6739H13.449C11.5105 23.8677 10.6572 22.4072 12.1331 20.5693L21.204 9.22002C21.6687 8.63862 22.0574 8.44482 22.3671 8.44482" fill="#2A58A3"/>
<path fill-rule="evenodd" clip-rule="evenodd" d="M22.3104 15.0625C22.9623 15.062 23.5996 15.3034 24.1419 15.7562C24.6841 16.2089 25.1069 16.8527 25.3567 17.6061C25.6065 18.3595 25.6722 19.1887 25.5454 19.9889C25.4187 20.789 25.1051 21.5241 24.6444 22.1012C24.1838 22.6784 23.5967 23.0716 22.9574 23.2312C22.3181 23.3909 21.6554 23.3097 21.053 22.998C20.4506 22.6863 19.9356 22.1581 19.5731 21.4802C19.2106 20.8022 19.0169 20.005 19.0165 19.1893V19.1893C19.0167 18.0961 19.3638 17.0478 19.9815 16.2747C20.5991 15.5016 21.4368 15.067 22.3104 15.0663" fill="#E6363B"/>
<path fill-rule="evenodd" clip-rule="evenodd" d="M22.3296 38.0005H38.9987C41.7126 37.903 42.411 37.0302 44.6593 31.5C41.5577 35.186 40.8602 35.3798 38.9987 35.3798H5.66061C3.80006 35.3798 3.10159 35.186 0 31.5C2.24825 37.0302 2.94671 37.903 5.66061 38.0005H22.3296Z" fill="#2A58A3"/>
<path d="M36.7657 33.9028H37.2718V34.3385H36.7657V33.9028ZM36.7657 32.6463H37.2718V33.0833H36.7657V32.6463ZM33.5902 33.5557C33.5902 32.8502 34.4577 32.8971 34.4577 32.8971L34.559 33.2074C34.4719 33.1808 34.0275 33.1707 34.0093 33.5532C34.0122 33.6508 34.0457 33.7429 34.1025 33.8098C34.1594 33.8767 34.235 33.9128 34.313 33.9104H34.3312C34.4074 33.9158 34.4835 33.8992 34.5537 33.8618C34.624 33.8245 34.6864 33.7674 34.7361 33.6951V32.6463H33.3291V32.3359H36.4418V32.6463H35.1603V33.1124C35.2868 32.9935 35.4425 32.9335 35.6006 32.9427C35.964 32.9427 36.2697 33.2251 36.2697 33.5633C36.2697 34.0041 35.7727 34.4057 35.7727 34.4057L35.4528 34.1929C35.4629 34.1929 35.8456 33.9003 35.8456 33.5709C35.8446 33.5273 35.8369 33.4844 35.8227 33.4446C35.8085 33.4048 35.7882 33.3688 35.7629 33.3388C35.7376 33.3088 35.7078 33.2854 35.6753 33.2698C35.6428 33.2542 35.6081 33.2468 35.5733 33.2479H35.5581C35.481 33.2582 35.4063 33.2881 35.3388 33.3359C35.2712 33.3836 35.2122 33.448 35.1653 33.5253V34.6539H34.7351V34.1105C34.2593 34.3917 33.5902 34.1371 33.5902 33.5595V33.5557ZM33.2693 31.3593V31.5911C33.1936 31.5605 33.1139 31.5485 33.0345 31.5557C32.5952 31.5557 32.6417 32.2409 32.9869 32.3321H32.7095C32.6225 32.2853 32.3887 32.0307 32.3988 31.7989C32.4079 31.3897 32.9049 31.1579 33.2693 31.3631V31.3593ZM32.2034 32.3372H33.2602V32.6488H33.0122V34.6463H32.5709V32.645H32.2075V32.3347L32.2034 32.3372ZM31.3855 33.0693C31.4442 33.0765 31.5035 33.0662 31.5584 33.0391C31.6133 33.012 31.6623 32.969 31.7013 32.9135C31.7307 32.6146 31.1041 32.4955 31.1041 32.8502C31.1092 32.9819 31.2428 33.0693 31.3855 33.0693V33.0693ZM30.3479 32.341H32.1984V32.6513H31.9736C32.3664 33.1466 32.002 33.8838 31.3531 33.9307C31.3713 33.9307 31.511 34.0573 31.6163 34.1359C31.8026 34.2625 31.9696 34.3803 31.9787 34.3892L31.7307 34.6742C31.3015 34.469 30.9361 34.0776 30.603 33.7597L30.8794 33.5063L31.0413 33.633C31.0995 33.6669 31.1648 33.6763 31.2276 33.6596C31.6102 33.5823 31.673 33.3695 31.6821 33.2682C31.2377 33.5557 30.5352 33.1415 30.7984 32.6475H30.358L30.3479 32.341ZM27.9377 32.341H30.357V32.6513H29.8985V33.2847H28.8811C28.8222 33.2761 28.763 33.2972 28.7165 33.3433C28.67 33.3894 28.64 33.4567 28.6331 33.5304V33.5431C28.6331 33.9623 29.2587 34.1118 29.3832 34.0307C29.3819 33.9798 29.3887 33.929 29.4034 33.8814C29.418 33.8338 29.4402 33.7904 29.4685 33.7538C29.4969 33.7172 29.5308 33.688 29.5683 33.6682C29.6058 33.6483 29.6462 33.638 29.6869 33.6381H29.7234C30.0483 33.6381 30.105 34.1194 29.8185 34.2157C29.8529 34.2986 29.8947 34.3763 29.943 34.4475C30.0098 34.5615 30.1303 34.7261 30.1303 34.7261H29.6798C29.6798 34.7261 29.608 34.5995 29.5695 34.5197C29.531 34.4399 29.5219 34.4019 29.4936 34.3436C29.4743 34.3525 28.1989 34.4019 28.207 33.5063C28.207 33.2188 28.4854 32.9832 28.8052 32.9832H29.4571V32.6463H27.9387V32.3359L27.9377 32.341ZM27.1937 33.7103V33.9788L26.1328 34.6425L25.8848 34.3423L27.1937 33.7103ZM26.7604 33.9915C26.1915 33.9826 26.0093 33.4962 26.0093 33.3581V32.6488H25.6925V32.3385H27.8881V32.6488H27.6401V34.6463H27.2099V33.8863C27.0737 33.9735 26.9212 34.0129 26.7685 34.0003L26.7604 33.9915ZM27.2048 32.645H26.4477V33.3733C26.4477 33.5405 26.5428 33.7001 26.7858 33.7103C26.8659 33.7109 26.9452 33.6904 27.0186 33.6503C27.092 33.6101 27.1579 33.5512 27.2119 33.4772L27.2048 32.645ZM24.6286 32.3347H25.6844V32.645H25.4354V34.6425H24.9951V32.645H24.6337V32.3347H24.6286ZM23.7338 32.9338V33.2023C23.6325 33.2125 23.1456 33.158 23.1456 32.7476C23.1456 32.4715 23.4321 32.2827 23.753 32.2929C24.169 32.2929 24.5193 32.6171 24.5193 32.9997C24.5193 33.3822 24.1144 33.728 23.7247 33.709C23.7247 33.709 23.8492 33.9497 24.2075 33.9395C24.3653 33.9312 24.5202 33.8836 24.6631 33.7994C24.8059 33.7153 24.934 33.5962 25.0396 33.4493V33.956C24.3654 34.4969 23.2762 34.2296 23.09 33.3695C23.2226 33.409 23.3585 33.4285 23.4949 33.4278C23.7722 33.4278 24.0921 33.3011 24.0921 32.9629C24.0943 32.8659 24.0659 32.7717 24.0131 32.7006C23.9603 32.6295 23.8872 32.5872 23.8097 32.5829C23.7922 32.5811 23.7746 32.5811 23.757 32.5829C23.4837 32.5956 23.4736 32.9401 23.7459 32.9401L23.7338 32.9338ZM21.94 33.9902C21.3721 33.9826 21.196 33.4949 21.196 33.3569V32.6539H20.8802V32.3435H23.0738V32.6539H22.8258V34.6514H22.3955V33.8914C22.2572 33.98 22.1021 34.0194 21.9471 34.0054L21.94 33.9902ZM22.3854 32.6437H21.6201V33.3721C21.6201 33.5393 21.7153 33.6989 21.9603 33.709C22.0402 33.7094 22.1193 33.6889 22.1926 33.6488C22.2658 33.6086 22.3315 33.5497 22.3854 33.4759V32.6437ZM18.1896 33.9104H18.6957V34.3461H18.1896V33.9104ZM18.1896 32.6539H18.6957V33.0909H18.1896V32.6539ZM15.01 33.5671C15.01 32.8603 15.8786 32.9072 15.8786 32.9072L15.9798 33.2175C15.8927 33.1909 15.4483 33.1821 15.4291 33.5633C15.4316 33.6122 15.4417 33.6599 15.4589 33.7038C15.4761 33.7478 15.5 33.787 15.5293 33.8194C15.5587 33.8517 15.5928 33.8765 15.6298 33.8924C15.6668 33.9082 15.7059 33.9148 15.7449 33.9117H15.7591C15.8353 33.918 15.9116 33.902 15.9819 33.8648C16.0522 33.8276 16.1146 33.7704 16.164 33.6976V32.6539H14.7529V32.3435H17.8636V32.6539H16.5831V33.12C16.7093 33.0012 16.8647 32.9412 17.0224 32.9503C17.3858 32.9503 17.6925 33.2327 17.6925 33.5709C17.6925 34.0117 17.1864 34.4133 17.1864 34.4133L16.8675 34.1878C16.8767 34.1878 17.2593 33.8952 17.2593 33.5671C17.2574 33.479 17.2277 33.3954 17.1767 33.3346C17.1257 33.2738 17.0574 33.2408 16.987 33.2429H16.9728C16.8959 33.2533 16.8214 33.2833 16.7541 33.331C16.6867 33.3787 16.6279 33.4431 16.5811 33.5203V34.6489H16.1498V34.1055C15.6903 34.3917 15.01 34.1371 15.01 33.5595V33.5671ZM12.3387 32.3486H14.7479V32.6589H14.4998V34.6565H14.0585V33.4721H13.2932V33.7825C13.295 33.8003 13.2936 33.8185 13.2893 33.8356C13.285 33.8528 13.2778 33.8686 13.2682 33.882C13.2587 33.8955 13.2469 33.9062 13.2338 33.9135C13.2206 33.9208 13.2064 33.9245 13.192 33.9243C13.1833 33.9256 13.1744 33.9256 13.1657 33.9243C13.0169 33.9155 12.5867 33.4177 12.5867 33.31C12.5867 33.1555 12.7446 33.1555 12.7638 33.1555H14.0504V32.6488H12.3397L12.3387 32.3486ZM11.2717 32.3486H12.3285V32.6589H12.0805V34.6565H11.6412V32.645H11.2768L11.2717 32.3486ZM10.5884 32.6589H9.86568V33.3417H10.5925L10.5884 32.6589ZM8.86758 32.3486H11.2768V32.6589H11.0338V34.6565H10.5884V33.6431H9.86568V33.9117C9.86581 33.932 9.86275 33.9521 9.85667 33.9709C9.85059 33.9897 9.8416 34.0068 9.83023 34.0213C9.81885 34.0358 9.80531 34.0473 9.79038 34.0552C9.77545 34.0631 9.75941 34.0673 9.7432 34.0675H9.727C9.6035 34.0675 9.10648 33.5608 9.10648 33.462C9.10648 33.3632 9.26439 33.348 9.27452 33.348H9.44154V32.6551H8.86758V32.3486Z" fill="#E6363B"/>
</svg>
