<svg width="384" height="84" viewBox="0 0 384 84" fill="none" xmlns="http://www.w3.org/2000/svg">
<path d="M73.8439 34.51C72.5632 34.51 71.4526 34.3003 70.5119 33.881C69.5712 33.4617 68.7609 32.9007 68.0809 32.198L64.9699 34.34H64.7999V26.35H65.0039C65.3212 27.3473 65.7179 28.322 66.1939 29.274C66.6812 30.2147 67.2706 31.0647 67.9619 31.824C68.6532 32.5833 69.4636 33.1897 70.3929 33.643C71.3336 34.085 72.4329 34.306 73.6909 34.306C74.7789 34.306 75.7139 34.0907 76.4959 33.66C77.2779 33.2293 77.8786 32.6343 78.2979 31.875C78.7172 31.1043 78.9269 30.2203 78.9269 29.223C78.9269 28.305 78.6776 27.5343 78.1789 26.911C77.6802 26.2877 77.0229 25.7493 76.2069 25.296C75.3909 24.8427 74.4899 24.412 73.5039 24.004C72.5292 23.596 71.5546 23.1597 70.5799 22.695C69.6052 22.219 68.7099 21.6467 67.8939 20.978C67.0779 20.3093 66.4206 19.4933 65.9219 18.53C65.4232 17.5553 65.1739 16.3653 65.1739 14.96C65.1739 13.5433 65.5252 12.3307 66.2279 11.322C66.9419 10.302 67.8712 9.52 69.0159 8.976C70.1719 8.432 71.4072 8.16 72.7219 8.16C73.7532 8.16 74.6939 8.32433 75.5439 8.653C76.4052 8.98167 77.1646 9.469 77.8219 10.115L80.8479 8.16H81.0009V15.81H80.8139C80.3606 14.2573 79.7656 12.9257 79.0289 11.815C78.3036 10.7043 77.4309 9.85433 76.4109 9.265C75.3909 8.67567 74.2236 8.381 72.9089 8.381C71.5376 8.381 70.5006 8.76633 69.7979 9.537C69.0952 10.3077 68.7439 11.2767 68.7439 12.444C68.7439 13.26 68.9876 13.957 69.4749 14.535C69.9736 15.113 70.6252 15.6287 71.4299 16.082C72.2346 16.524 73.1186 16.9547 74.0819 17.374C75.0566 17.7933 76.0256 18.258 76.9889 18.768C77.9636 19.2667 78.8532 19.8673 79.6579 20.57C80.4626 21.2613 81.1086 22.1057 81.5959 23.103C82.0946 24.089 82.3439 25.2847 82.3439 26.69C82.3439 28.2767 81.9699 29.6537 81.2219 30.821C80.4739 31.9883 79.4539 32.895 78.1619 33.541C76.8812 34.187 75.4419 34.51 73.8439 34.51ZM84.3892 34V33.813H86.6332V8.687H84.3892V8.5H91.3762V33.813H93.0932V34H84.3892ZM95.2862 34V33.813H96.9862V23.256C96.9862 22.304 96.9465 21.5163 96.8672 20.893C96.7992 20.2697 96.6462 19.805 96.4082 19.499C96.1815 19.1817 95.8302 19.023 95.3542 19.023C94.5382 19.023 93.8695 19.261 93.3482 19.737C92.8382 20.213 92.4359 20.825 92.1412 21.573C91.8579 22.321 91.6595 23.1257 91.5462 23.987C91.4329 24.837 91.3762 25.6473 91.3762 26.418L91.2232 26.486C91.2232 25.6587 91.2855 24.7577 91.4102 23.783C91.5462 22.8083 91.8012 21.8847 92.1752 21.012C92.5605 20.1393 93.1329 19.4253 93.8922 18.87C94.6515 18.3033 95.6602 18.02 96.9182 18.02C98.1875 18.02 99.1679 18.241 99.8592 18.683C100.562 19.125 101.049 19.737 101.321 20.519C101.605 21.2897 101.746 22.168 101.746 23.154V33.813H103.973V34H95.2862ZM114.263 34.34C112.552 34.34 111.073 33.966 109.826 33.218C108.591 32.47 107.639 31.4783 106.97 30.243C106.301 29.0077 105.967 27.6533 105.967 26.18C105.967 24.7067 106.301 23.3523 106.97 22.117C107.639 20.8817 108.591 19.89 109.826 19.142C111.073 18.394 112.552 18.02 114.263 18.02C115.974 18.02 117.448 18.394 118.683 19.142C119.93 19.89 120.887 20.8817 121.556 22.117C122.225 23.3523 122.559 24.7067 122.559 26.18C122.559 27.6533 122.225 29.0077 121.556 30.243C120.887 31.4783 119.93 32.47 118.683 33.218C117.448 33.966 115.974 34.34 114.263 34.34ZM114.263 34.153C114.886 34.153 115.402 33.932 115.81 33.49C116.229 33.048 116.558 32.4473 116.796 31.688C117.045 30.9287 117.215 30.073 117.306 29.121C117.408 28.169 117.459 27.1887 117.459 26.18C117.459 25.16 117.408 24.1797 117.306 23.239C117.215 22.287 117.045 21.4313 116.796 20.672C116.558 19.9127 116.229 19.312 115.81 18.87C115.402 18.428 114.886 18.207 114.263 18.207C113.628 18.207 113.101 18.428 112.682 18.87C112.274 19.312 111.951 19.9127 111.713 20.672C111.475 21.4313 111.305 22.287 111.203 23.239C111.101 24.191 111.05 25.1713 111.05 26.18C111.05 27.1887 111.101 28.169 111.203 29.121C111.305 30.073 111.475 30.9287 111.713 31.688C111.951 32.4473 112.274 33.048 112.682 33.49C113.101 33.932 113.628 34.153 114.263 34.153ZM124.499 42.5V42.313H126.743V18.547H124.499V18.36H131.486V24.276C131.712 22.2927 132.273 20.7627 133.169 19.686C134.075 18.598 135.288 18.054 136.807 18.054C138.042 18.054 139.204 18.377 140.292 19.023C141.391 19.669 142.281 20.5983 142.961 21.811C143.652 23.0237 143.998 24.48 143.998 26.18C143.998 27.88 143.652 29.342 142.961 30.566C142.281 31.7787 141.391 32.7137 140.292 33.371C139.204 34.017 138.042 34.34 136.807 34.34C135.299 34.34 134.092 33.796 133.186 32.708C132.279 31.6087 131.712 30.0617 131.486 28.067V42.313H133.713V42.5H124.499ZM135.753 33.813C136.421 33.813 136.96 33.5183 137.368 32.929C137.776 32.3283 138.076 31.4613 138.269 30.328C138.473 29.1947 138.575 27.812 138.575 26.18C138.575 24.548 138.473 23.171 138.269 22.049C138.076 20.9157 137.776 20.0543 137.368 19.465C136.96 18.8757 136.421 18.581 135.753 18.581C135.039 18.581 134.353 18.8587 133.696 19.414C133.05 19.9693 132.517 20.8137 132.098 21.947C131.69 23.069 131.486 24.48 131.486 26.18C131.486 27.8913 131.69 29.3137 132.098 30.447C132.517 31.569 133.05 32.4133 133.696 32.98C134.353 33.5353 135.039 33.813 135.753 33.813ZM163.304 34.34C161.593 34.34 160.114 33.966 158.867 33.218C157.632 32.47 156.68 31.4783 156.011 30.243C155.342 29.0077 155.008 27.6533 155.008 26.18C155.008 24.7067 155.342 23.3523 156.011 22.117C156.68 20.8817 157.632 19.89 158.867 19.142C160.114 18.394 161.593 18.02 163.304 18.02C165.015 18.02 166.489 18.394 167.724 19.142C168.971 19.89 169.928 20.8817 170.597 22.117C171.266 23.3523 171.6 24.7067 171.6 26.18C171.6 27.6533 171.266 29.0077 170.597 30.243C169.928 31.4783 168.971 32.47 167.724 33.218C166.489 33.966 165.015 34.34 163.304 34.34ZM163.304 34.153C163.927 34.153 164.443 33.932 164.851 33.49C165.27 33.048 165.599 32.4473 165.837 31.688C166.086 30.9287 166.256 30.073 166.347 29.121C166.449 28.169 166.5 27.1887 166.5 26.18C166.5 25.16 166.449 24.1797 166.347 23.239C166.256 22.287 166.086 21.4313 165.837 20.672C165.599 19.9127 165.27 19.312 164.851 18.87C164.443 18.428 163.927 18.207 163.304 18.207C162.669 18.207 162.142 18.428 161.723 18.87C161.315 19.312 160.992 19.9127 160.754 20.672C160.516 21.4313 160.346 22.287 160.244 23.239C160.142 24.191 160.091 25.1713 160.091 26.18C160.091 27.1887 160.142 28.169 160.244 29.121C160.346 30.073 160.516 30.9287 160.754 31.688C160.992 32.4473 161.315 33.048 161.723 33.49C162.142 33.932 162.669 34.153 163.304 34.153ZM180.527 18.36V33.813H182.244V34H173.54V33.813H175.784V18.547H173.54V18.36H180.527ZM190.897 23.154V33.813H193.124V34H184.437V33.813H186.137V23.256C186.137 22.304 186.097 21.5163 186.018 20.893C185.95 20.2697 185.797 19.805 185.559 19.499C185.332 19.1817 184.981 19.023 184.505 19.023C183.689 19.023 183.02 19.261 182.499 19.737C181.989 20.213 181.586 20.825 181.292 21.573C181.008 22.321 180.81 23.1257 180.697 23.987C180.583 24.837 180.527 25.6473 180.527 26.418L180.374 26.486C180.374 25.6587 180.436 24.7577 180.561 23.783C180.685 22.8083 180.94 21.8847 181.326 21.012C181.711 20.1393 182.283 19.4253 183.043 18.87C183.802 18.3033 184.811 18.02 186.069 18.02C187.349 18.02 188.335 18.241 189.027 18.683C189.729 19.125 190.217 19.737 190.489 20.519C190.761 21.2897 190.897 22.168 190.897 23.154ZM202.971 34V33.813H214.191C215.098 33.813 215.908 33.5183 216.622 32.929C217.348 32.3283 217.914 31.5067 218.322 30.464C218.742 29.41 218.951 28.2087 218.951 26.86C218.951 25.5113 218.742 24.4063 218.322 23.545C217.914 22.6837 217.353 22.0433 216.639 21.624C215.925 21.2047 215.109 20.995 214.191 20.995H210.451V20.859H215.211C216.979 20.859 218.577 21.0573 220.005 21.454C221.445 21.8507 222.589 22.5137 223.439 23.443C224.289 24.361 224.714 25.6133 224.714 27.2C224.714 29.6707 223.881 31.4217 222.215 32.453C220.549 33.4843 218.215 34 215.211 34H202.971ZM206.014 33.915V8.585H211.301V33.915H206.014ZM210.451 20.961V20.825H213.851C214.656 20.825 215.393 20.6323 216.061 20.247C216.73 19.8617 217.263 19.2497 217.659 18.411C218.067 17.5723 218.271 16.4787 218.271 15.13C218.271 13.7813 218.067 12.6253 217.659 11.662C217.263 10.6987 216.73 9.962 216.061 9.452C215.393 8.942 214.656 8.687 213.851 8.687H202.971V8.5H214.531C217.353 8.5 219.586 8.99866 221.229 9.996C222.884 10.982 223.711 12.58 223.711 14.79C223.711 16.9093 222.929 18.4677 221.365 19.465C219.801 20.4623 217.523 20.961 214.531 20.961H210.451ZM233.936 34.34C232.655 34.34 231.663 34.119 230.961 33.677C230.269 33.2237 229.788 32.6117 229.516 31.841C229.244 31.0703 229.108 30.192 229.108 29.206V18.547H226.864V18.36H233.851V29.104C233.851 30.056 233.89 30.8437 233.97 31.467C234.049 32.0903 234.208 32.5607 234.446 32.878C234.684 33.184 235.035 33.337 235.5 33.337C236.316 33.337 236.979 33.099 237.489 32.623C238.01 32.147 238.412 31.535 238.696 30.787C238.979 30.039 239.177 29.24 239.291 28.39C239.404 27.5287 239.461 26.7127 239.461 25.942L239.614 25.874C239.614 26.7013 239.551 27.6023 239.427 28.577C239.302 29.5517 239.047 30.4753 238.662 31.348C238.288 32.2207 237.721 32.9403 236.962 33.507C236.214 34.0623 235.205 34.34 233.936 34.34ZM239.461 34V18.547H237.251V18.36H244.238V33.813H246.465V34H239.461ZM255.633 34.323C254.397 34.323 253.23 34 252.131 33.354C251.043 32.708 250.153 31.7787 249.462 30.566C248.782 29.3533 248.442 27.897 248.442 26.197C248.442 24.497 248.782 23.0407 249.462 21.828C250.153 20.604 251.043 19.669 252.131 19.023C253.23 18.3657 254.397 18.037 255.633 18.037C257.14 18.037 258.347 18.581 259.254 19.669C260.16 20.757 260.721 22.2983 260.937 24.293V8.687H258.71V8.5H265.697V33.813H267.924V34H260.937V28.101C260.721 30.0843 260.16 31.62 259.254 32.708C258.358 33.7847 257.151 34.323 255.633 34.323ZM256.67 33.796C257.384 33.796 258.064 33.5183 258.71 32.963C259.367 32.4077 259.9 31.569 260.308 30.447C260.727 29.3137 260.937 27.897 260.937 26.197C260.937 24.4857 260.727 23.069 260.308 21.947C259.9 20.8137 259.367 19.9693 258.71 19.414C258.064 18.8473 257.384 18.564 256.67 18.564C256.012 18.564 255.474 18.8643 255.055 19.465C254.647 20.0543 254.346 20.9157 254.154 22.049C253.961 23.1823 253.865 24.565 253.865 26.197C253.865 27.829 253.961 29.2117 254.154 30.345C254.346 31.467 254.647 32.3227 255.055 32.912C255.474 33.5013 256.012 33.796 256.67 33.796ZM277.455 42.84C276.435 42.84 275.443 42.7607 274.48 42.602C273.517 42.4433 272.65 42.194 271.879 41.854C271.12 41.514 270.513 41.072 270.06 40.528C269.618 39.984 269.397 39.3323 269.397 38.573C269.397 37.859 269.601 37.2697 270.009 36.805C270.417 36.3517 270.916 35.9947 271.505 35.734C272.106 35.4733 272.701 35.292 273.29 35.19C273.891 35.088 274.384 35.037 274.769 35.037H274.922C274.412 35.3317 274.049 35.734 273.834 36.244C273.619 36.7653 273.511 37.3887 273.511 38.114C273.511 38.862 273.675 39.576 274.004 40.256C274.344 40.9473 274.865 41.5083 275.568 41.939C276.271 42.3697 277.177 42.585 278.288 42.585C279.059 42.585 279.818 42.4943 280.566 42.313C281.325 42.1317 282.017 41.854 282.64 41.48C283.263 41.1173 283.762 40.6583 284.136 40.103C284.51 39.559 284.697 38.9243 284.697 38.199C284.697 37.4283 284.47 36.822 284.017 36.38C283.575 35.938 283.003 35.6207 282.3 35.428C281.609 35.2467 280.895 35.156 280.158 35.156C279.92 35.156 279.54 35.156 279.019 35.156C278.498 35.156 277.976 35.156 277.455 35.156C276.934 35.156 276.548 35.156 276.299 35.156C274.554 35.156 273.148 34.901 272.083 34.391C271.018 33.881 270.485 33.0593 270.485 31.926C270.485 31.2347 270.683 30.6567 271.08 30.192C271.477 29.7273 271.998 29.359 272.644 29.087C273.301 28.8037 274.021 28.6053 274.803 28.492C275.596 28.3673 276.395 28.305 277.2 28.305V28.424C276.883 28.424 276.514 28.4523 276.095 28.509C275.676 28.5657 275.268 28.662 274.871 28.798C274.486 28.9227 274.163 29.0927 273.902 29.308C273.641 29.512 273.511 29.7613 273.511 30.056C273.511 30.5093 273.794 30.804 274.361 30.94C274.928 31.0647 275.676 31.127 276.605 31.127C277.002 31.127 277.393 31.127 277.778 31.127C278.175 31.1157 278.554 31.11 278.917 31.11C279.291 31.0987 279.637 31.093 279.954 31.093C280.589 31.093 281.24 31.178 281.909 31.348C282.589 31.5067 283.212 31.7957 283.779 32.215C284.357 32.623 284.822 33.201 285.173 33.949C285.524 34.6857 285.7 35.632 285.7 36.788C285.7 37.8647 285.485 38.7827 285.054 39.542C284.623 40.3127 284.023 40.936 283.252 41.412C282.493 41.8993 281.614 42.2563 280.617 42.483C279.631 42.721 278.577 42.84 277.455 42.84ZM277.166 28.458C276.373 28.458 275.568 28.3617 274.752 28.169C273.936 27.9763 273.188 27.676 272.508 27.268C271.828 26.8487 271.278 26.3103 270.859 25.653C270.44 24.9843 270.23 24.1797 270.23 23.239C270.23 22.2983 270.44 21.4993 270.859 20.842C271.278 20.1847 271.828 19.652 272.508 19.244C273.188 18.8247 273.936 18.5187 274.752 18.326C275.568 18.1333 276.373 18.037 277.166 18.037C277.971 18.037 278.775 18.1333 279.58 18.326C280.385 18.5187 281.121 18.8247 281.79 19.244C282.459 19.652 282.997 20.1847 283.405 20.842C283.813 21.4993 284.017 22.2983 284.017 23.239C284.017 24.1797 283.813 24.9843 283.405 25.653C282.997 26.3103 282.459 26.8487 281.79 27.268C281.121 27.676 280.385 27.9763 279.58 28.169C278.775 28.3617 277.971 28.458 277.166 28.458ZM277.166 28.271C277.642 28.271 278.027 28.033 278.322 27.557C278.617 27.081 278.832 26.4577 278.968 25.687C279.115 24.9163 279.189 24.1003 279.189 23.239C279.189 22.3097 279.115 21.4653 278.968 20.706C278.832 19.9467 278.617 19.346 278.322 18.904C278.027 18.4507 277.642 18.224 277.166 18.224C276.701 18.224 276.322 18.4507 276.027 18.904C275.732 19.346 275.511 19.9467 275.364 20.706C275.228 21.4653 275.16 22.3097 275.16 23.239C275.16 24.1003 275.2 24.9163 275.279 25.687C275.358 26.4577 275.54 27.081 275.823 27.557C276.106 28.033 276.554 28.271 277.166 28.271ZM287.213 23.477C286.658 23.477 286.159 23.2957 285.717 22.933C285.286 22.559 285.071 22.0263 285.071 21.335C285.071 20.6437 285.292 20.1393 285.734 19.822C286.187 19.4933 286.68 19.329 287.213 19.329C287.723 19.329 288.216 19.4933 288.692 19.822C289.168 20.1393 289.406 20.5927 289.406 21.182H289.253C289.253 20.4793 288.975 19.8333 288.42 19.244C287.876 18.6547 287.1 18.36 286.091 18.36C285.592 18.36 285.06 18.479 284.493 18.717C283.926 18.9437 283.411 19.329 282.946 19.873C282.481 20.417 282.136 21.1707 281.909 22.134L281.773 22.066C282 21.0687 282.357 20.2867 282.844 19.72C283.331 19.1533 283.864 18.7567 284.442 18.53C285.031 18.3033 285.581 18.19 286.091 18.19C286.816 18.19 287.428 18.3373 287.927 18.632C288.426 18.9267 288.8 19.3063 289.049 19.771C289.31 20.2243 289.44 20.6947 289.44 21.182C289.44 22.032 289.208 22.627 288.743 22.967C288.278 23.307 287.768 23.477 287.213 23.477ZM299.604 34.34C298.006 34.34 296.578 34.0283 295.32 33.405C294.062 32.7703 293.07 31.8467 292.345 30.634C291.631 29.4213 291.274 27.9367 291.274 26.18C291.274 24.4233 291.625 22.9387 292.328 21.726C293.03 20.5133 293.999 19.5953 295.235 18.972C296.47 18.3373 297.887 18.02 299.485 18.02C301.173 18.02 302.562 18.36 303.65 19.04C304.749 19.7087 305.565 20.587 306.098 21.675C306.642 22.763 306.914 23.9247 306.914 25.16H293.552V24.99H301.865C301.865 24.242 301.836 23.477 301.78 22.695C301.734 21.9017 301.632 21.165 301.474 20.485C301.326 19.805 301.094 19.2553 300.777 18.836C300.459 18.4167 300.029 18.207 299.485 18.207C298.907 18.207 298.425 18.4223 298.04 18.853C297.654 19.2723 297.348 19.8447 297.122 20.57C296.906 21.2953 296.753 22.1113 296.663 23.018C296.572 23.9247 296.527 24.8653 296.527 25.84C296.527 26.9393 296.578 27.982 296.68 28.968C296.793 29.954 296.991 30.8267 297.275 31.586C297.558 32.334 297.955 32.9233 298.465 33.354C298.975 33.7847 299.626 34 300.42 34C302.018 34 303.372 33.541 304.483 32.623C305.593 31.705 306.358 30.5547 306.778 29.172H306.965C306.523 30.634 305.695 31.8637 304.483 32.861C303.281 33.847 301.655 34.34 299.604 34.34ZM314.928 34.238C313.829 34.238 312.996 34.0567 312.429 33.694C311.863 33.32 311.477 32.8213 311.273 32.198C311.069 31.5633 310.967 30.8493 310.967 30.056V14.96C311.738 14.96 312.577 14.875 313.483 14.705C314.39 14.535 315.138 14.28 315.727 13.94V31.076C315.727 31.926 315.829 32.5323 316.033 32.895C316.237 33.2463 316.566 33.422 317.019 33.422C317.575 33.422 318.153 33.167 318.753 32.657C319.365 32.147 319.858 31.4387 320.232 30.532L320.402 30.583C319.983 31.6597 319.314 32.538 318.396 33.218C317.478 33.898 316.322 34.238 314.928 34.238ZM308.502 18.547V18.36H319.365V18.547H308.502Z" fill="#DBF227"/>
<path d="M25.2771 73L22.2051 61.8H23.6451L26.0611 71.4L28.8131 61.8H30.3011L32.9731 71.432L35.4211 61.8H36.8611L33.7251 73H32.1891L29.5171 63.736L26.7811 73H25.2771ZM41.1169 73.192C40.3703 73.192 39.7036 73.016 39.1169 72.664C38.5303 72.312 38.0663 71.8213 37.7249 71.192C37.3943 70.5627 37.2289 69.8267 37.2289 68.984C37.2289 68.1307 37.3943 67.3947 37.7249 66.776C38.0556 66.1467 38.5143 65.656 39.1009 65.304C39.6983 64.952 40.3809 64.776 41.1489 64.776C41.9383 64.776 42.6103 64.952 43.1649 65.304C43.7196 65.656 44.1409 66.1147 44.4289 66.68C44.7276 67.2453 44.8769 67.8693 44.8769 68.552C44.8769 68.6587 44.8769 68.7707 44.8769 68.888C44.8769 69.0053 44.8716 69.1387 44.8609 69.288H38.2369V68.248H43.5489C43.5169 67.512 43.2716 66.9413 42.8129 66.536C42.3649 66.12 41.7996 65.912 41.1169 65.912C40.6689 65.912 40.2476 66.0187 39.8529 66.232C39.4583 66.4347 39.1383 66.7333 38.8929 67.128C38.6583 67.5227 38.5409 68.0187 38.5409 68.616V69.064C38.5409 69.7253 38.6636 70.28 38.9089 70.728C39.1543 71.1653 39.4689 71.496 39.8529 71.72C40.2476 71.944 40.6689 72.056 41.1169 72.056C41.6823 72.056 42.1463 71.9333 42.5089 71.688C42.8823 71.432 43.1543 71.0853 43.3249 70.648H44.6529C44.5143 71.1387 44.2849 71.576 43.9649 71.96C43.6449 72.3333 43.2449 72.632 42.7649 72.856C42.2956 73.08 41.7463 73.192 41.1169 73.192ZM50.9087 73V61.48H52.2527V66.328C52.53 65.8373 52.9087 65.4587 53.3887 65.192C53.8687 64.9147 54.402 64.776 54.9887 64.776C55.6074 64.776 56.1407 64.904 56.5887 65.16C57.0474 65.4053 57.3994 65.784 57.6447 66.296C57.9007 66.808 58.0287 67.4533 58.0287 68.232V73H56.7007V68.376C56.7007 67.5653 56.53 66.9573 56.1887 66.552C55.8474 66.136 55.3514 65.928 54.7007 65.928C54.242 65.928 53.826 66.04 53.4527 66.264C53.09 66.4773 52.7967 66.7973 52.5727 67.224C52.3594 67.64 52.2527 68.152 52.2527 68.76V73H50.9087ZM62.7362 73.192C62.0855 73.192 61.5415 73.08 61.1042 72.856C60.6669 72.6213 60.3415 72.3173 60.1282 71.944C59.9149 71.56 59.8082 71.1493 59.8082 70.712C59.8082 70.168 59.9469 69.7093 60.2242 69.336C60.5122 68.952 60.9122 68.664 61.4242 68.472C61.9469 68.2693 62.5549 68.168 63.2482 68.168H65.3922C65.3922 67.6667 65.3122 67.2507 65.1522 66.92C65.0029 66.5893 64.7789 66.3387 64.4802 66.168C64.1815 65.9973 63.8189 65.912 63.3922 65.912C62.8802 65.912 62.4375 66.04 62.0642 66.296C61.6909 66.552 61.4615 66.9307 61.3762 67.432H60.0002C60.0642 66.856 60.2562 66.376 60.5762 65.992C60.9069 65.5973 61.3229 65.2987 61.8242 65.096C62.3255 64.8827 62.8482 64.776 63.3922 64.776C64.1389 64.776 64.7575 64.9147 65.2482 65.192C65.7389 65.4587 66.1069 65.8373 66.3522 66.328C66.6082 66.808 66.7362 67.3733 66.7362 68.024V73H65.5362L65.4562 71.576C65.3495 71.8 65.2109 72.0133 65.0402 72.216C64.8802 72.408 64.6882 72.5787 64.4642 72.728C64.2509 72.8667 64.0002 72.9787 63.7122 73.064C63.4242 73.1493 63.0989 73.192 62.7362 73.192ZM62.9442 72.056C63.3175 72.056 63.6535 71.9813 63.9522 71.832C64.2615 71.672 64.5229 71.4587 64.7362 71.192C64.9495 70.9253 65.1095 70.6267 65.2162 70.296C65.3335 69.9547 65.3922 69.608 65.3922 69.256V69.208H63.3602C62.8482 69.208 62.4322 69.272 62.1122 69.4C61.7922 69.5173 61.5629 69.688 61.4242 69.912C61.2855 70.1253 61.2162 70.3707 61.2162 70.648C61.2162 70.936 61.2802 71.1867 61.4082 71.4C61.5469 71.6027 61.7442 71.7627 62.0002 71.88C62.2562 71.9973 62.5709 72.056 62.9442 72.056ZM70.8224 73L67.7824 64.968H69.1904L71.6064 71.704L74.0544 64.968H75.4304L72.3744 73H70.8224ZM80.0701 73.192C79.3234 73.192 78.6567 73.016 78.0701 72.664C77.4834 72.312 77.0194 71.8213 76.6781 71.192C76.3474 70.5627 76.1821 69.8267 76.1821 68.984C76.1821 68.1307 76.3474 67.3947 76.6781 66.776C77.0087 66.1467 77.4674 65.656 78.0541 65.304C78.6514 64.952 79.3341 64.776 80.1021 64.776C80.8914 64.776 81.5634 64.952 82.1181 65.304C82.6727 65.656 83.0941 66.1147 83.3821 66.68C83.6807 67.2453 83.8301 67.8693 83.8301 68.552C83.8301 68.6587 83.8301 68.7707 83.8301 68.888C83.8301 69.0053 83.8247 69.1387 83.8141 69.288H77.1901V68.248H82.5021C82.4701 67.512 82.2247 66.9413 81.7661 66.536C81.3181 66.12 80.7527 65.912 80.0701 65.912C79.6221 65.912 79.2007 66.0187 78.8061 66.232C78.4114 66.4347 78.0914 66.7333 77.8461 67.128C77.6114 67.5227 77.4941 68.0187 77.4941 68.616V69.064C77.4941 69.7253 77.6167 70.28 77.8621 70.728C78.1074 71.1653 78.4221 71.496 78.8061 71.72C79.2007 71.944 79.6221 72.056 80.0701 72.056C80.6354 72.056 81.0994 71.9333 81.4621 71.688C81.8354 71.432 82.1074 71.0853 82.2781 70.648H83.6061C83.4674 71.1387 83.2381 71.576 82.9181 71.96C82.5981 72.3333 82.1981 72.632 81.7181 72.856C81.2487 73.08 80.6994 73.192 80.0701 73.192ZM93.4138 73.192C92.6671 73.192 92.0005 73.016 91.4138 72.664C90.8271 72.312 90.3631 71.8213 90.0218 71.192C89.6911 70.5627 89.5258 69.8267 89.5258 68.984C89.5258 68.1307 89.6911 67.3947 90.0218 66.776C90.3525 66.1467 90.8111 65.656 91.3978 65.304C91.9951 64.952 92.6778 64.776 93.4458 64.776C94.2351 64.776 94.9071 64.952 95.4618 65.304C96.0165 65.656 96.4378 66.1147 96.7258 66.68C97.0245 67.2453 97.1738 67.8693 97.1738 68.552C97.1738 68.6587 97.1738 68.7707 97.1738 68.888C97.1738 69.0053 97.1685 69.1387 97.1578 69.288H90.5338V68.248H95.8458C95.8138 67.512 95.5685 66.9413 95.1098 66.536C94.6618 66.12 94.0965 65.912 93.4138 65.912C92.9658 65.912 92.5445 66.0187 92.1498 66.232C91.7551 66.4347 91.4351 66.7333 91.1898 67.128C90.9551 67.5227 90.8378 68.0187 90.8378 68.616V69.064C90.8378 69.7253 90.9605 70.28 91.2058 70.728C91.4511 71.1653 91.7658 71.496 92.1498 71.72C92.5445 71.944 92.9658 72.056 93.4138 72.056C93.9791 72.056 94.4431 71.9333 94.8058 71.688C95.1791 71.432 95.4511 71.0853 95.6218 70.648H96.9498C96.8111 71.1387 96.5818 71.576 96.2618 71.96C95.9418 72.3333 95.5418 72.632 95.0618 72.856C94.5925 73.08 94.0431 73.192 93.4138 73.192ZM100.963 73L97.9231 64.968H99.3311L101.747 71.704L104.195 64.968H105.571L102.515 73H100.963ZM110.211 73.192C109.464 73.192 108.797 73.016 108.211 72.664C107.624 72.312 107.16 71.8213 106.819 71.192C106.488 70.5627 106.323 69.8267 106.323 68.984C106.323 68.1307 106.488 67.3947 106.819 66.776C107.149 66.1467 107.608 65.656 108.195 65.304C108.792 64.952 109.475 64.776 110.243 64.776C111.032 64.776 111.704 64.952 112.259 65.304C112.813 65.656 113.235 66.1147 113.523 66.68C113.821 67.2453 113.971 67.8693 113.971 68.552C113.971 68.6587 113.971 68.7707 113.971 68.888C113.971 69.0053 113.965 69.1387 113.955 69.288H107.331V68.248H112.643C112.611 67.512 112.365 66.9413 111.907 66.536C111.459 66.12 110.893 65.912 110.211 65.912C109.763 65.912 109.341 66.0187 108.947 66.232C108.552 66.4347 108.232 66.7333 107.987 67.128C107.752 67.5227 107.635 68.0187 107.635 68.616V69.064C107.635 69.7253 107.757 70.28 108.003 70.728C108.248 71.1653 108.563 71.496 108.947 71.72C109.341 71.944 109.763 72.056 110.211 72.056C110.776 72.056 111.24 71.9333 111.603 71.688C111.976 71.432 112.248 71.0853 112.419 70.648H113.747C113.608 71.1387 113.379 71.576 113.059 71.96C112.739 72.3333 112.339 72.632 111.859 72.856C111.389 73.08 110.84 73.192 110.211 73.192ZM115.752 73V64.968H116.968L117.08 66.504C117.262 66.1413 117.491 65.832 117.768 65.576C118.056 65.32 118.398 65.1227 118.792 64.984C119.187 64.8453 119.635 64.776 120.136 64.776V66.184H119.672C119.331 66.184 119.006 66.232 118.696 66.328C118.387 66.4133 118.11 66.5573 117.864 66.76C117.63 66.952 117.443 67.224 117.304 67.576C117.166 67.928 117.096 68.36 117.096 68.872V73H115.752ZM122.523 76.52L124.491 72.104H124.027L120.875 64.968H122.331L124.955 71.096L127.723 64.968H129.115L123.931 76.52H122.523ZM137.824 73.192C137.173 73.192 136.597 73.0853 136.096 72.872C135.594 72.648 135.194 72.3333 134.896 71.928C134.608 71.5227 134.426 71.048 134.352 70.504H135.728C135.792 70.7813 135.909 71.0427 136.08 71.288C136.25 71.5227 136.48 71.7093 136.768 71.848C137.066 71.9867 137.424 72.056 137.84 72.056C138.224 72.056 138.538 72.0027 138.784 71.896C139.029 71.7787 139.21 71.624 139.328 71.432C139.445 71.24 139.504 71.032 139.504 70.808C139.504 70.488 139.424 70.2427 139.264 70.072C139.114 69.9013 138.89 69.768 138.592 69.672C138.293 69.5653 137.936 69.4747 137.52 69.4C137.168 69.336 136.821 69.2507 136.48 69.144C136.149 69.0373 135.85 68.8987 135.584 68.728C135.317 68.5573 135.104 68.344 134.944 68.088C134.784 67.8213 134.704 67.5067 134.704 67.144C134.704 66.6853 134.821 66.28 135.056 65.928C135.301 65.5653 135.637 65.2827 136.064 65.08C136.501 64.8773 137.018 64.776 137.616 64.776C138.469 64.776 139.162 64.984 139.696 65.4C140.24 65.816 140.554 66.4187 140.64 67.208H139.312C139.269 66.8027 139.098 66.488 138.8 66.264C138.501 66.0293 138.101 65.912 137.6 65.912C137.098 65.912 136.714 66.0133 136.448 66.216C136.192 66.4187 136.064 66.6853 136.064 67.016C136.064 67.2293 136.133 67.416 136.272 67.576C136.421 67.736 136.64 67.8747 136.928 67.992C137.216 68.0987 137.562 68.1947 137.968 68.28C138.49 68.376 138.97 68.504 139.408 68.664C139.845 68.824 140.197 69.0587 140.464 69.368C140.741 69.6773 140.88 70.12 140.88 70.696C140.89 71.1973 140.768 71.6347 140.512 72.008C140.266 72.3813 139.914 72.6747 139.456 72.888C138.997 73.0907 138.453 73.192 137.824 73.192ZM145.624 73C145.144 73 144.728 72.9253 144.376 72.776C144.024 72.6267 143.752 72.376 143.56 72.024C143.378 71.6613 143.288 71.176 143.288 70.568V66.104H141.896V64.968H143.288L143.464 63.032H144.632V64.968H146.984V66.104H144.632V70.568C144.632 71.0693 144.733 71.4107 144.936 71.592C145.138 71.7627 145.496 71.848 146.008 71.848H146.872V73H145.624ZM149.586 76.52L151.554 72.104H151.09L147.938 64.968H149.394L152.018 71.096L154.786 64.968H156.178L150.994 76.52H149.586ZM157.596 73V61.48H158.94V73H157.596ZM164.711 73.192C163.964 73.192 163.297 73.016 162.711 72.664C162.124 72.312 161.66 71.8213 161.319 71.192C160.988 70.5627 160.823 69.8267 160.823 68.984C160.823 68.1307 160.988 67.3947 161.319 66.776C161.649 66.1467 162.108 65.656 162.695 65.304C163.292 64.952 163.975 64.776 164.743 64.776C165.532 64.776 166.204 64.952 166.759 65.304C167.313 65.656 167.735 66.1147 168.023 66.68C168.321 67.2453 168.471 67.8693 168.471 68.552C168.471 68.6587 168.471 68.7707 168.471 68.888C168.471 69.0053 168.465 69.1387 168.455 69.288H161.831V68.248H167.143C167.111 67.512 166.865 66.9413 166.407 66.536C165.959 66.12 165.393 65.912 164.711 65.912C164.263 65.912 163.841 66.0187 163.447 66.232C163.052 66.4347 162.732 66.7333 162.487 67.128C162.252 67.5227 162.135 68.0187 162.135 68.616V69.064C162.135 69.7253 162.257 70.28 162.503 70.728C162.748 71.1653 163.063 71.496 163.447 71.72C163.841 71.944 164.263 72.056 164.711 72.056C165.276 72.056 165.74 71.9333 166.103 71.688C166.476 71.432 166.748 71.0853 166.919 70.648H168.247C168.108 71.1387 167.879 71.576 167.559 71.96C167.239 72.3333 166.839 72.632 166.359 72.856C165.889 73.08 165.34 73.192 164.711 73.192ZM177.142 73.192C176.492 73.192 175.948 73.08 175.51 72.856C175.073 72.6213 174.748 72.3173 174.534 71.944C174.321 71.56 174.214 71.1493 174.214 70.712C174.214 70.168 174.353 69.7093 174.63 69.336C174.918 68.952 175.318 68.664 175.83 68.472C176.353 68.2693 176.961 68.168 177.654 68.168H179.798C179.798 67.6667 179.718 67.2507 179.558 66.92C179.409 66.5893 179.185 66.3387 178.886 66.168C178.588 65.9973 178.225 65.912 177.798 65.912C177.286 65.912 176.844 66.04 176.47 66.296C176.097 66.552 175.868 66.9307 175.782 67.432H174.406C174.47 66.856 174.662 66.376 174.982 65.992C175.313 65.5973 175.729 65.2987 176.23 65.096C176.732 64.8827 177.254 64.776 177.798 64.776C178.545 64.776 179.164 64.9147 179.654 65.192C180.145 65.4587 180.513 65.8373 180.758 66.328C181.014 66.808 181.142 67.3733 181.142 68.024V73H179.942L179.862 71.576C179.756 71.8 179.617 72.0133 179.446 72.216C179.286 72.408 179.094 72.5787 178.87 72.728C178.657 72.8667 178.406 72.9787 178.118 73.064C177.83 73.1493 177.505 73.192 177.142 73.192ZM177.35 72.056C177.724 72.056 178.06 71.9813 178.358 71.832C178.668 71.672 178.929 71.4587 179.142 71.192C179.356 70.9253 179.516 70.6267 179.622 70.296C179.74 69.9547 179.798 69.608 179.798 69.256V69.208H177.766C177.254 69.208 176.838 69.272 176.518 69.4C176.198 69.5173 175.969 69.688 175.83 69.912C175.692 70.1253 175.622 70.3707 175.622 70.648C175.622 70.936 175.686 71.1867 175.814 71.4C175.953 71.6027 176.15 71.7627 176.406 71.88C176.662 71.9973 176.977 72.056 177.35 72.056ZM186.155 73C185.675 73 185.259 72.9253 184.907 72.776C184.555 72.6267 184.283 72.376 184.091 72.024C183.909 71.6613 183.819 71.176 183.819 70.568V66.104H182.427V64.968H183.819L183.995 63.032H185.163V64.968H187.515V66.104H185.163V70.568C185.163 71.0693 185.264 71.4107 185.467 71.592C185.669 71.7627 186.027 71.848 186.539 71.848H187.403V73H186.155ZM194.367 76.52L196.335 72.104H195.871L192.719 64.968H194.175L196.799 71.096L199.567 64.968H200.959L195.775 76.52H194.367ZM205.243 73.192C204.497 73.192 203.825 73.0213 203.227 72.68C202.63 72.328 202.155 71.8373 201.803 71.208C201.462 70.5787 201.291 69.8373 201.291 68.984C201.291 68.1307 201.467 67.3893 201.819 66.76C202.171 66.1307 202.646 65.6453 203.243 65.304C203.851 64.952 204.529 64.776 205.275 64.776C206.033 64.776 206.71 64.952 207.307 65.304C207.905 65.6453 208.374 66.1307 208.715 66.76C209.057 67.3893 209.227 68.1307 209.227 68.984C209.227 69.8373 209.051 70.5787 208.699 71.208C208.358 71.8373 207.883 72.328 207.275 72.68C206.678 73.0213 206.001 73.192 205.243 73.192ZM205.243 72.04C205.713 72.04 206.145 71.928 206.539 71.704C206.934 71.4693 207.249 71.128 207.483 70.68C207.729 70.2213 207.851 69.656 207.851 68.984C207.851 68.3013 207.734 67.736 207.499 67.288C207.265 66.84 206.95 66.504 206.555 66.28C206.161 66.0453 205.734 65.928 205.275 65.928C204.827 65.928 204.401 66.0453 203.995 66.28C203.601 66.504 203.281 66.84 203.035 67.288C202.79 67.736 202.667 68.3013 202.667 68.984C202.667 69.656 202.79 70.2213 203.035 70.68C203.281 71.128 203.595 71.4693 203.979 71.704C204.374 71.928 204.795 72.04 205.243 72.04ZM214.04 73.192C213.421 73.192 212.877 73.0693 212.408 72.824C211.949 72.5787 211.592 72.2 211.336 71.688C211.09 71.176 210.968 70.5307 210.968 69.752V64.968H212.312V69.608C212.312 70.4187 212.488 71.0267 212.84 71.432C213.192 71.8373 213.693 72.04 214.344 72.04C214.792 72.04 215.197 71.9333 215.56 71.72C215.922 71.496 216.205 71.176 216.408 70.76C216.621 70.344 216.728 69.8373 216.728 69.24V64.968H218.072V73H216.856L216.776 71.592C216.52 72.0933 216.152 72.488 215.672 72.776C215.192 73.0533 214.648 73.192 214.04 73.192ZM220.284 73V64.968H221.5L221.612 66.504C221.793 66.1413 222.022 65.832 222.3 65.576C222.588 65.32 222.929 65.1227 223.324 64.984C223.718 64.8453 224.166 64.776 224.668 64.776V66.184H224.204C223.862 66.184 223.537 66.232 223.228 66.328C222.918 66.4133 222.641 66.5573 222.396 66.76C222.161 66.952 221.974 67.224 221.836 67.576C221.697 67.928 221.628 68.36 221.628 68.872V73H220.284ZM233.064 73.192C232.414 73.192 231.87 73.08 231.432 72.856C230.995 72.6213 230.67 72.3173 230.456 71.944C230.243 71.56 230.136 71.1493 230.136 70.712C230.136 70.168 230.275 69.7093 230.552 69.336C230.84 68.952 231.24 68.664 231.752 68.472C232.275 68.2693 232.883 68.168 233.576 68.168H235.72C235.72 67.6667 235.64 67.2507 235.48 66.92C235.331 66.5893 235.107 66.3387 234.808 66.168C234.51 65.9973 234.147 65.912 233.72 65.912C233.208 65.912 232.766 66.04 232.392 66.296C232.019 66.552 231.79 66.9307 231.704 67.432H230.328C230.392 66.856 230.584 66.376 230.904 65.992C231.235 65.5973 231.651 65.2987 232.152 65.096C232.654 64.8827 233.176 64.776 233.72 64.776C234.467 64.776 235.086 64.9147 235.576 65.192C236.067 65.4587 236.435 65.8373 236.68 66.328C236.936 66.808 237.064 67.3733 237.064 68.024V73H235.864L235.784 71.576C235.678 71.8 235.539 72.0133 235.368 72.216C235.208 72.408 235.016 72.5787 234.792 72.728C234.579 72.8667 234.328 72.9787 234.04 73.064C233.752 73.1493 233.427 73.192 233.064 73.192ZM233.272 72.056C233.646 72.056 233.982 71.9813 234.28 71.832C234.59 71.672 234.851 71.4587 235.064 71.192C235.278 70.9253 235.438 70.6267 235.544 70.296C235.662 69.9547 235.72 69.608 235.72 69.256V69.208H233.688C233.176 69.208 232.76 69.272 232.44 69.4C232.12 69.5173 231.891 69.688 231.752 69.912C231.614 70.1253 231.544 70.3707 231.544 70.648C231.544 70.936 231.608 71.1867 231.736 71.4C231.875 71.6027 232.072 71.7627 232.328 71.88C232.584 71.9973 232.899 72.056 233.272 72.056ZM239.591 73V63.688C239.591 63.176 239.677 62.76 239.847 62.44C240.018 62.1093 240.269 61.8693 240.599 61.72C240.941 61.56 241.357 61.48 241.847 61.48H242.727V62.632H242.055C241.65 62.632 241.362 62.712 241.191 62.872C241.021 63.032 240.935 63.3147 240.935 63.72V73H239.591ZM238.359 66.104V64.968H242.935V66.104H238.359ZM245.013 73V63.688C245.013 63.176 245.099 62.76 245.269 62.44C245.44 62.1093 245.691 61.8693 246.021 61.72C246.363 61.56 246.779 61.48 247.269 61.48H248.149V62.632H247.477C247.072 62.632 246.784 62.712 246.613 62.872C246.443 63.032 246.357 63.3147 246.357 63.72V73H245.013ZM243.781 66.104V64.968H248.357V66.104H243.781ZM253.275 73.192C252.528 73.192 251.856 73.0213 251.259 72.68C250.661 72.328 250.187 71.8373 249.835 71.208C249.493 70.5787 249.323 69.8373 249.323 68.984C249.323 68.1307 249.499 67.3893 249.851 66.76C250.203 66.1307 250.677 65.6453 251.275 65.304C251.883 64.952 252.56 64.776 253.307 64.776C254.064 64.776 254.741 64.952 255.339 65.304C255.936 65.6453 256.405 66.1307 256.747 66.76C257.088 67.3893 257.259 68.1307 257.259 68.984C257.259 69.8373 257.083 70.5787 256.731 71.208C256.389 71.8373 255.915 72.328 255.307 72.68C254.709 73.0213 254.032 73.192 253.275 73.192ZM253.275 72.04C253.744 72.04 254.176 71.928 254.571 71.704C254.965 71.4693 255.28 71.128 255.515 70.68C255.76 70.2213 255.883 69.656 255.883 68.984C255.883 68.3013 255.765 67.736 255.531 67.288C255.296 66.84 254.981 66.504 254.587 66.28C254.192 66.0453 253.765 65.928 253.307 65.928C252.859 65.928 252.432 66.0453 252.027 66.28C251.632 66.504 251.312 66.84 251.067 67.288C250.821 67.736 250.699 68.3013 250.699 68.984C250.699 69.656 250.821 70.2213 251.067 70.68C251.312 71.128 251.627 71.4693 252.011 71.704C252.405 71.928 252.827 72.04 253.275 72.04ZM259.143 73V64.968H260.359L260.471 66.504C260.652 66.1413 260.882 65.832 261.159 65.576C261.447 65.32 261.788 65.1227 262.183 64.984C262.578 64.8453 263.026 64.776 263.527 64.776V66.184H263.063C262.722 66.184 262.396 66.232 262.087 66.328C261.778 66.4133 261.5 66.5573 261.255 66.76C261.02 66.952 260.834 67.224 260.695 67.576C260.556 67.928 260.487 68.36 260.487 68.872V73H259.143ZM268.321 73.192C267.542 73.192 266.854 73.0107 266.257 72.648C265.67 72.2747 265.211 71.7733 264.881 71.144C264.561 70.504 264.401 69.7787 264.401 68.968C264.401 68.1573 264.561 67.4373 264.881 66.808C265.211 66.1787 265.67 65.6827 266.257 65.32C266.854 64.9573 267.547 64.776 268.337 64.776C268.987 64.776 269.563 64.9093 270.065 65.176C270.566 65.4427 270.95 65.816 271.217 66.296V61.48H272.561V73H271.345L271.217 71.688C271.046 71.944 270.827 72.1893 270.561 72.424C270.305 72.648 269.99 72.8347 269.617 72.984C269.243 73.1227 268.811 73.192 268.321 73.192ZM268.465 72.024C268.998 72.024 269.467 71.9013 269.873 71.656C270.289 71.4 270.609 71.0427 270.833 70.584C271.057 70.1253 271.169 69.592 271.169 68.984C271.169 68.376 271.057 67.8427 270.833 67.384C270.609 66.9253 270.289 66.5733 269.873 66.328C269.467 66.072 268.998 65.944 268.465 65.944C267.953 65.944 267.489 66.072 267.073 66.328C266.667 66.5733 266.347 66.9253 266.113 67.384C265.889 67.8427 265.777 68.376 265.777 68.984C265.777 69.592 265.889 70.1253 266.113 70.584C266.347 71.0427 266.667 71.4 267.073 71.656C267.489 71.9013 267.953 72.024 268.465 72.024ZM277.408 73.192C276.757 73.192 276.213 73.08 275.776 72.856C275.339 72.6213 275.013 72.3173 274.8 71.944C274.587 71.56 274.48 71.1493 274.48 70.712C274.48 70.168 274.619 69.7093 274.896 69.336C275.184 68.952 275.584 68.664 276.096 68.472C276.619 68.2693 277.227 68.168 277.92 68.168H280.064C280.064 67.6667 279.984 67.2507 279.824 66.92C279.675 66.5893 279.451 66.3387 279.152 66.168C278.853 65.9973 278.491 65.912 278.064 65.912C277.552 65.912 277.109 66.04 276.736 66.296C276.363 66.552 276.133 66.9307 276.048 67.432H274.672C274.736 66.856 274.928 66.376 275.248 65.992C275.579 65.5973 275.995 65.2987 276.496 65.096C276.997 64.8827 277.52 64.776 278.064 64.776C278.811 64.776 279.429 64.9147 279.92 65.192C280.411 65.4587 280.779 65.8373 281.024 66.328C281.28 66.808 281.408 67.3733 281.408 68.024V73H280.208L280.128 71.576C280.021 71.8 279.883 72.0133 279.712 72.216C279.552 72.408 279.36 72.5787 279.136 72.728C278.923 72.8667 278.672 72.9787 278.384 73.064C278.096 73.1493 277.771 73.192 277.408 73.192ZM277.616 72.056C277.989 72.056 278.325 71.9813 278.624 71.832C278.933 71.672 279.195 71.4587 279.408 71.192C279.621 70.9253 279.781 70.6267 279.888 70.296C280.005 69.9547 280.064 69.608 280.064 69.256V69.208H278.032C277.52 69.208 277.104 69.272 276.784 69.4C276.464 69.5173 276.235 69.688 276.096 69.912C275.957 70.1253 275.888 70.3707 275.888 70.648C275.888 70.936 275.952 71.1867 276.08 71.4C276.219 71.6027 276.416 71.7627 276.672 71.88C276.928 71.9973 277.243 72.056 277.616 72.056ZM287.711 73.192C287.253 73.192 286.837 73.128 286.463 73C286.101 72.872 285.781 72.696 285.503 72.472C285.226 72.2373 284.997 71.9707 284.815 71.672L284.687 73H283.471V61.48H284.815V66.28C285.071 65.8747 285.439 65.5227 285.919 65.224C286.399 64.9253 286.997 64.776 287.711 64.776C288.501 64.776 289.183 64.9573 289.759 65.32C290.346 65.6827 290.799 66.184 291.119 66.824C291.45 67.4533 291.615 68.1733 291.615 68.984C291.615 69.7947 291.45 70.52 291.119 71.16C290.799 71.7893 290.346 72.2853 289.759 72.648C289.173 73.0107 288.49 73.192 287.711 73.192ZM287.551 72.024C288.085 72.024 288.554 71.9013 288.959 71.656C289.365 71.4 289.679 71.0427 289.903 70.584C290.138 70.1253 290.255 69.592 290.255 68.984C290.255 68.376 290.138 67.8427 289.903 67.384C289.679 66.9253 289.365 66.5733 288.959 66.328C288.554 66.072 288.085 65.944 287.551 65.944C287.018 65.944 286.549 66.072 286.143 66.328C285.738 66.5733 285.423 66.9253 285.199 67.384C284.975 67.8427 284.863 68.376 284.863 68.984C284.863 69.592 284.975 70.1253 285.199 70.584C285.423 71.0427 285.738 71.4 286.143 71.656C286.549 71.9013 287.018 72.024 287.551 72.024ZM293.502 73V61.48H294.846V73H293.502ZM300.617 73.192C299.87 73.192 299.204 73.016 298.617 72.664C298.03 72.312 297.566 71.8213 297.225 71.192C296.894 70.5627 296.729 69.8267 296.729 68.984C296.729 68.1307 296.894 67.3947 297.225 66.776C297.556 66.1467 298.014 65.656 298.601 65.304C299.198 64.952 299.881 64.776 300.649 64.776C301.438 64.776 302.11 64.952 302.665 65.304C303.22 65.656 303.641 66.1147 303.929 66.68C304.228 67.2453 304.377 67.8693 304.377 68.552C304.377 68.6587 304.377 68.7707 304.377 68.888C304.377 69.0053 304.372 69.1387 304.361 69.288H297.737V68.248H303.049C303.017 67.512 302.772 66.9413 302.313 66.536C301.865 66.12 301.3 65.912 300.617 65.912C300.169 65.912 299.748 66.0187 299.353 66.232C298.958 66.4347 298.638 66.7333 298.393 67.128C298.158 67.5227 298.041 68.0187 298.041 68.616V69.064C298.041 69.7253 298.164 70.28 298.409 70.728C298.654 71.1653 298.969 71.496 299.353 71.72C299.748 71.944 300.169 72.056 300.617 72.056C301.182 72.056 301.646 71.9333 302.009 71.688C302.382 71.432 302.654 71.0853 302.825 70.648H304.153C304.014 71.1387 303.785 71.576 303.465 71.96C303.145 72.3333 302.745 72.632 302.265 72.856C301.796 73.08 301.246 73.192 300.617 73.192ZM314.649 73.192C314.19 73.192 313.774 73.128 313.401 73C313.038 72.872 312.718 72.696 312.441 72.472C312.163 72.2373 311.934 71.9707 311.753 71.672L311.625 73H310.409V61.48H311.753V66.28C312.009 65.8747 312.377 65.5227 312.857 65.224C313.337 64.9253 313.934 64.776 314.649 64.776C315.438 64.776 316.121 64.9573 316.697 65.32C317.283 65.6827 317.737 66.184 318.057 66.824C318.387 67.4533 318.553 68.1733 318.553 68.984C318.553 69.7947 318.387 70.52 318.057 71.16C317.737 71.7893 317.283 72.2853 316.697 72.648C316.11 73.0107 315.427 73.192 314.649 73.192ZM314.489 72.024C315.022 72.024 315.491 71.9013 315.897 71.656C316.302 71.4 316.617 71.0427 316.841 70.584C317.075 70.1253 317.193 69.592 317.193 68.984C317.193 68.376 317.075 67.8427 316.841 67.384C316.617 66.9253 316.302 66.5733 315.897 66.328C315.491 66.072 315.022 65.944 314.489 65.944C313.955 65.944 313.486 66.072 313.081 66.328C312.675 66.5733 312.361 66.9253 312.137 67.384C311.913 67.8427 311.801 68.376 311.801 68.984C311.801 69.592 311.913 70.1253 312.137 70.584C312.361 71.0427 312.675 71.4 313.081 71.656C313.486 71.9013 313.955 72.024 314.489 72.024ZM323.368 73.192C322.749 73.192 322.205 73.0693 321.736 72.824C321.277 72.5787 320.92 72.2 320.664 71.688C320.419 71.176 320.296 70.5307 320.296 69.752V64.968H321.64V69.608C321.64 70.4187 321.816 71.0267 322.168 71.432C322.52 71.8373 323.021 72.04 323.672 72.04C324.12 72.04 324.525 71.9333 324.888 71.72C325.251 71.496 325.533 71.176 325.736 70.76C325.949 70.344 326.056 69.8373 326.056 69.24V64.968H327.4V73H326.184L326.104 71.592C325.848 72.0933 325.48 72.488 325 72.776C324.52 73.0533 323.976 73.192 323.368 73.192ZM333.196 73.192C332.417 73.192 331.729 73.0107 331.132 72.648C330.545 72.2747 330.086 71.7733 329.756 71.144C329.436 70.504 329.276 69.7787 329.276 68.968C329.276 68.1573 329.436 67.4373 329.756 66.808C330.086 66.1787 330.545 65.6827 331.132 65.32C331.729 64.9573 332.422 64.776 333.212 64.776C333.862 64.776 334.438 64.9093 334.94 65.176C335.441 65.4427 335.825 65.816 336.092 66.296V61.48H337.436V73H336.22L336.092 71.688C335.921 71.944 335.702 72.1893 335.436 72.424C335.18 72.648 334.865 72.8347 334.492 72.984C334.118 73.1227 333.686 73.192 333.196 73.192ZM333.34 72.024C333.873 72.024 334.342 71.9013 334.748 71.656C335.164 71.4 335.484 71.0427 335.708 70.584C335.932 70.1253 336.044 69.592 336.044 68.984C336.044 68.376 335.932 67.8427 335.708 67.384C335.484 66.9253 335.164 66.5733 334.748 66.328C334.342 66.072 333.873 65.944 333.34 65.944C332.828 65.944 332.364 66.072 331.948 66.328C331.542 66.5733 331.222 66.9253 330.988 67.384C330.764 67.8427 330.652 68.376 330.652 68.984C330.652 69.592 330.764 70.1253 330.988 70.584C331.222 71.0427 331.542 71.4 331.948 71.656C332.364 71.9013 332.828 72.024 333.34 72.024ZM342.827 76.712C342.102 76.712 341.462 76.616 340.907 76.424C340.352 76.2427 339.92 75.96 339.611 75.576C339.302 75.192 339.147 74.7173 339.147 74.152C339.147 73.9067 339.195 73.6453 339.291 73.368C339.398 73.1013 339.574 72.8347 339.819 72.568C340.075 72.3013 340.432 72.0613 340.891 71.848L341.803 72.392C341.248 72.6267 340.886 72.8933 340.715 73.192C340.544 73.4907 340.459 73.768 340.459 74.024C340.459 74.376 340.56 74.6693 340.763 74.904C340.966 75.1387 341.243 75.3147 341.595 75.432C341.958 75.5493 342.368 75.608 342.827 75.608C343.286 75.608 343.68 75.5387 344.011 75.4C344.342 75.272 344.598 75.0907 344.779 74.856C344.96 74.632 345.051 74.36 345.051 74.04C345.051 73.6773 344.912 73.368 344.635 73.112C344.358 72.8667 343.835 72.7227 343.067 72.68C342.427 72.6373 341.894 72.5787 341.467 72.504C341.051 72.4293 340.704 72.344 340.427 72.248C340.15 72.1413 339.915 72.024 339.723 71.896C339.542 71.768 339.376 71.6347 339.227 71.496V71.128L340.779 69.576L341.947 69.992L340.347 71.448L340.555 70.888C340.672 70.9733 340.784 71.0533 340.891 71.128C340.998 71.192 341.142 71.2507 341.323 71.304C341.504 71.3573 341.755 71.4107 342.075 71.464C342.395 71.5067 342.827 71.5493 343.371 71.592C344.096 71.6453 344.678 71.7733 345.115 71.976C345.563 72.1787 345.883 72.4507 346.075 72.792C346.278 73.1333 346.379 73.5333 346.379 73.992C346.379 74.4507 346.251 74.8827 345.995 75.288C345.75 75.704 345.366 76.0453 344.843 76.312C344.32 76.5787 343.648 76.712 342.827 76.712ZM342.811 70.472C342.139 70.472 341.568 70.3493 341.099 70.104C340.63 69.848 340.272 69.5067 340.027 69.08C339.782 68.6427 339.659 68.1573 339.659 67.624C339.659 67.0907 339.782 66.6107 340.027 66.184C340.272 65.7573 340.63 65.416 341.099 65.16C341.568 64.904 342.139 64.776 342.811 64.776C343.494 64.776 344.07 64.904 344.539 65.16C345.008 65.416 345.366 65.7573 345.611 66.184C345.856 66.6107 345.979 67.0907 345.979 67.624C345.979 68.1573 345.856 68.6427 345.611 69.08C345.366 69.5067 345.008 69.848 344.539 70.104C344.07 70.3493 343.494 70.472 342.811 70.472ZM342.811 69.368C343.387 69.368 343.84 69.224 344.171 68.936C344.512 68.6373 344.683 68.2 344.683 67.624C344.683 67.0693 344.512 66.6427 344.171 66.344C343.84 66.0453 343.387 65.896 342.811 65.896C342.246 65.896 341.792 66.0453 341.451 66.344C341.11 66.6427 340.939 67.0693 340.939 67.624C340.939 68.2 341.11 68.6373 341.451 68.936C341.792 69.224 342.246 69.368 342.811 69.368ZM344.123 66.104L343.723 64.968H347.019V65.976L344.123 66.104ZM351.789 73.192C351.042 73.192 350.375 73.016 349.789 72.664C349.202 72.312 348.738 71.8213 348.397 71.192C348.066 70.5627 347.901 69.8267 347.901 68.984C347.901 68.1307 348.066 67.3947 348.397 66.776C348.727 66.1467 349.186 65.656 349.773 65.304C350.37 64.952 351.053 64.776 351.821 64.776C352.61 64.776 353.282 64.952 353.837 65.304C354.391 65.656 354.813 66.1147 355.101 66.68C355.399 67.2453 355.549 67.8693 355.549 68.552C355.549 68.6587 355.549 68.7707 355.549 68.888C355.549 69.0053 355.543 69.1387 355.533 69.288H348.909V68.248H354.221C354.189 67.512 353.943 66.9413 353.485 66.536C353.037 66.12 352.471 65.912 351.789 65.912C351.341 65.912 350.919 66.0187 350.525 66.232C350.13 66.4347 349.81 66.7333 349.565 67.128C349.33 67.5227 349.213 68.0187 349.213 68.616V69.064C349.213 69.7253 349.335 70.28 349.581 70.728C349.826 71.1653 350.141 71.496 350.525 71.72C350.919 71.944 351.341 72.056 351.789 72.056C352.354 72.056 352.818 71.9333 353.181 71.688C353.554 71.432 353.826 71.0853 353.997 70.648H355.325C355.186 71.1387 354.957 71.576 354.637 71.96C354.317 72.3333 353.917 72.632 353.437 72.856C352.967 73.08 352.418 73.192 351.789 73.192ZM360.233 73C359.753 73 359.337 72.9253 358.985 72.776C358.633 72.6267 358.361 72.376 358.169 72.024C357.988 71.6613 357.897 71.176 357.897 70.568V66.104H356.505V64.968H357.897L358.073 63.032H359.241V64.968H361.593V66.104H359.241V70.568C359.241 71.0693 359.342 71.4107 359.545 71.592C359.748 71.7627 360.105 71.848 360.617 71.848H361.481V73H360.233Z" fill="#F0F0D6"/>
</svg>
